<?xml version="1.0" encoding="UTF-8"?>
<svg id="Layer_1" xmlns="http://www.w3.org/2000/svg" viewBox="0 0 1023.54 782.82">
  <defs>
    <style>
      .cls-1 {
        fill: #fff;
      }
    </style>
  </defs>
  <path class="cls-1" d="M637.12,132.29c-27.58-42.47-66.7-75.06-117.36-97.8C469.07,11.76,408.71.39,338.68.39H0v782.43h182.19v-215.73h52.38l53.34-84.79,53.83,84.76c68.72-.34,128.07-11.85,178-34.62,50.67-23.09,89.79-55.69,117.36-97.8,27.56-42.09,41.36-92.58,41.36-151.46s-13.8-108.42-41.36-150.9ZM453.81,383.78c-25.49,21.47-61.83,33.25-109.02,35.4l-56.31-75.99-56.04,76.36h-50.25V147.93h58.16l48.17-76.58,48.7,76.68c50.89,1.17,89.75,12.87,116.58,35.1,28.31,23.47,42.47,56.83,42.47,100.04s-14.16,76.76-42.47,100.6Z"/>
  <path class="cls-1" d="M982.18,131.89c-27.58-42.47-66.7-75.06-117.36-97.8C814.13,11.37,753.77,0,683.74,0h-338.68v.06c67.52.63,125.93,11.95,175.18,34.03,38.79,17.41,70.79,40.62,96.05,69.6l20.34-32.33,48.5,76.37c49.49,1.54,87.41,13.21,113.74,35.03,28.31,23.47,42.47,56.83,42.47,100.04s-14.16,76.76-42.47,100.6c-25.01,21.06-60.46,32.81-106.36,35.27l-55.92-75.47-56.2,76.57h65.95c-2.74,4.93-5.65,9.76-8.74,14.48-27.58,42.11-66.7,74.71-117.36,97.8-49.25,22.45-107.66,33.95-175.18,34.59v215.79h182.19v-215.73h55.67l53.1-84.4,53.57,84.34c67.54-.63,125.97-12.13,175.22-34.59,50.67-23.09,89.79-55.69,117.36-97.8,27.56-42.09,41.36-92.58,41.36-151.46s-13.8-108.42-41.36-150.9Z"/>
</svg>