<?xml version="1.0" encoding="UTF-8"?>
<svg id="Layer_1" xmlns="http://www.w3.org/2000/svg" viewBox="0 0 1027 1027">
  <defs>
    <style>
      .cls-1 {
        fill: #2c3e50;
      }

      .cls-2 {
        fill: #fff;
      }

      .cls-3 {
        fill: #1abc9c;
      }
    </style>
  </defs>
  <rect class="cls-1" width="1027" height="1027" rx="144.94" ry="144.94"/>
  <path class="cls-3" d="M893.57,322.94c-21.61-33.28-52.26-58.82-91.96-76.64-39.71-17.8-87.01-26.71-141.88-26.71h-265.38v.05c52.9.49,98.67,9.37,137.26,26.67,30.4,13.64,55.47,31.83,75.26,54.53l15.94-25.33,38.01,59.84c38.78,1.21,68.49,10.35,89.12,27.45,22.18,18.39,33.28,44.53,33.28,78.39s-11.1,60.15-33.28,78.82c-19.6,16.5-47.38,25.71-83.34,27.64l-43.82-59.13-44.04,60h51.68c-2.15,3.86-4.43,7.65-6.85,11.35-21.61,32.99-52.26,58.54-91.96,76.63-38.59,17.59-84.36,26.61-137.26,27.1v169.08h142.76v-169.04h43.62l41.6-66.13,41.97,66.09c52.92-.49,98.7-9.51,137.3-27.1,39.7-18.09,70.35-43.64,91.96-76.63,21.59-32.98,32.41-72.54,32.41-118.68s-10.81-84.96-32.41-118.24Z"/>
  <path class="cls-2" d="M623.19,323.24c-21.61-33.28-52.26-58.82-91.96-76.64-39.71-17.8-87.01-26.71-141.88-26.71H123.96v613.08h142.76v-169.04h41.05l41.8-66.44,42.18,66.41c53.85-.26,100.35-9.29,139.48-27.13,39.7-18.09,70.35-43.64,91.96-76.63,21.59-32.98,32.41-72.54,32.41-118.68s-10.81-84.96-32.41-118.24ZM479.55,520.3c-19.97,16.82-48.45,26.06-85.42,27.74l-44.12-59.54-43.91,59.83h-39.37v-212.83h45.57l37.75-60,38.16,60.09c39.87.92,70.32,10.08,91.35,27.51,22.18,18.39,33.28,44.53,33.28,78.39s-11.1,60.15-33.28,78.82Z"/>
</svg>